<?xml version="1.0" encoding="UTF-8"?>
<!DOCTYPE svg PUBLIC "-//W3C//DTD SVG 1.1//EN" "http://www.w3.org/Graphics/SVG/1.1/DTD/svg11.dtd">
<!-- Creator: CorelDRAW X8 -->
<svg xmlns="http://www.w3.org/2000/svg" xml:space="preserve" width="136px" height="33px" version="1.1" style="shape-rendering:geometricPrecision; text-rendering:geometricPrecision; image-rendering:optimizeQuality; fill-rule:evenodd; clip-rule:evenodd"
viewBox="0 0 18837 4557"
 xmlns:xlink="http://www.w3.org/1999/xlink">
 <defs>
  <style type="text/css">
   <![CDATA[
    .fil2 {fill:#04E96C}
    .fil0 {fill:#04E96C;fill-rule:nonzero}
    .fil1 {fill:#CFDAD6;fill-rule:nonzero}
   ]]>
  </style>
 </defs>
 <g id="Camada_x0020_1">
  <metadata id="CorelCorpID_0Corel-Layer"/>
  <g id="_2342464839216">
   <path class="fil0" d="M1499 3120c467,0 776,-138 1039,-368 59,-50 109,-129 109,-229 0,-163 -138,-297 -301,-297 -75,0 -142,30 -192,71 -184,146 -363,230 -634,230 -501,0 -848,-417 -848,-918l0 -9c0,-501 355,-910 848,-910 229,0 417,75 597,209 46,29 104,62 192,62 175,0 317,-137 317,-313 0,-112 -59,-204 -125,-254 -243,-180 -539,-297 -977,-297 -898,0 -1524,681 -1524,1512l0 8c0,839 639,1503 1499,1503zm1712 -347c0,180 141,322 321,322 179,0 321,-142 321,-322l0 -638 514 0 626 793c75,96 171,167 317,167 155,0 305,-117 305,-297 0,-100 -42,-167 -104,-246l-447 -543c355,-146 584,-430 584,-889l0 -8c0,-276 -87,-505 -250,-668 -192,-192 -480,-297 -852,-297l-1014 0c-180,0 -321,142 -321,322l0 2304zm642 -1206l0 -839 639 0c313,0 505,142 505,417l0 8c0,247 -179,414 -492,414l-652 0zm3795 1553c902,0 1557,-681 1557,-1511l0 -9c0,-831 -647,-1503 -1549,-1503 -901,0 -1557,681 -1557,1512l0 8c0,831 647,1503 1549,1503zm8 -593c-517,0 -884,-417 -884,-918l0 -9c0,-501 359,-910 876,-910 518,0 885,418 885,919l0 8c0,501 -359,910 -877,910zm2672 326c59,162 180,263 334,263l67 0c155,0 272,-96 330,-263l576 -1674 576 1674c59,167 176,263 330,263l67 0c154,0 275,-101 334,-263l818 -2297c13,-37 25,-87 25,-125 0,-175 -142,-309 -317,-309 -159,0 -267,105 -309,230l-580 1791 -585 -1774c-50,-155 -163,-255 -325,-255l-51 0c-162,0 -275,104 -325,255l-585 1774 -580 -1791c-42,-134 -163,-230 -313,-230 -180,0 -330,134 -330,313 0,38 13,84 25,121l818 2297z"/>
   <path class="fil1" d="M257 4520c0,17 14,31 31,31 16,0 27,-9 33,-24l63 -140 331 0 63 139c6,13 17,25 33,25 19,0 33,-15 33,-33 0,-5 -1,-11 -4,-17l-245 -535c-8,-19 -21,-30 -42,-30l-3 0c-22,0 -35,11 -43,30l-245 536c-4,6 -5,13 -5,18zm154 -195l139 -309 138 309 -277 0zm1029 230c120,0 206,-67 206,-171l0 -1c0,-93 -62,-142 -197,-171 -133,-28 -164,-60 -164,-117l0 -2c0,-54 50,-97 129,-97 56,0 105,15 156,52 6,5 12,6 20,6 18,0 32,-14 32,-32 0,-13 -7,-23 -14,-28 -55,-40 -113,-59 -192,-59 -115,0 -199,69 -199,164l0 2c0,99 64,144 203,174 127,27 157,58 157,115l0 1c0,60 -54,103 -135,103 -76,0 -133,-23 -190,-72 -4,-4 -12,-8 -21,-8 -18,0 -33,15 -33,34 0,11 6,21 13,26 68,53 141,81 229,81zm350 -39c0,19 16,35 34,35 19,0 34,-16 34,-35l0 -543c0,-19 -15,-34 -34,-34 -18,0 -34,15 -34,34l0 543zm245 1c0,19 15,34 33,34 19,0 33,-15 33,-34l0 -450 193 283c7,11 17,17 29,17 12,0 21,-6 28,-17l193 -284 0 450c0,18 16,35 35,35 18,0 33,-16 33,-35l0 -542c0,-18 -15,-33 -33,-33l-8 0c-14,0 -25,6 -32,18l-215 324 -216 -324c-7,-11 -17,-18 -32,-18l-7 0c-18,0 -34,15 -34,33l0 543zm748 -1c0,19 16,35 34,35 19,0 34,-16 34,-35l0 -183 147 0c128,0 237,-67 237,-197l0 -1c0,-119 -90,-192 -226,-192l-192 0c-18,0 -34,16 -34,35l0 538zm68 -245l0 -265 153 0c97,0 162,45 162,131l0 2c0,79 -66,132 -166,132l-149 0zm508 241c0,19 15,34 33,34l348 0c17,0 31,-13 31,-31 0,-17 -14,-31 -31,-31l-313 0 0 -511c0,-19 -16,-34 -35,-34 -18,0 -33,15 -33,34l0 539zm567 34l379 0c17,0 31,-13 31,-31 0,-17 -14,-31 -31,-31l-345 0 0 -211 302 0c17,0 31,-14 31,-31 0,-16 -14,-31 -31,-31l-302 0 0 -206 340 0c18,0 31,-13 31,-31 0,-17 -13,-31 -31,-31l-374 0c-18,0 -34,16 -34,35l0 534c0,19 16,34 34,34zm1078 11c99,0 164,-35 224,-89 6,-5 11,-14 11,-24 0,-17 -16,-33 -33,-33 -9,0 -16,4 -22,10 -51,47 -104,73 -179,73 -132,0 -233,-110 -233,-249l0 -2c0,-139 100,-247 233,-247 74,0 127,27 174,69 5,3 13,7 22,7 18,0 34,-15 34,-33 0,-12 -7,-22 -13,-28 -56,-46 -118,-78 -216,-78 -177,0 -305,141 -305,312l0 2c0,173 129,310 303,310zm360 -41c0,19 15,35 33,35 19,0 35,-16 35,-35l0 -204 173 0 170 221c8,10 18,18 32,18 17,0 34,-16 34,-34 0,-9 -4,-17 -11,-25l-150 -193c94,-18 161,-76 161,-175l0 -2c0,-47 -17,-89 -46,-119 -38,-37 -98,-60 -172,-60l-226 0c-18,0 -33,16 -33,35l0 538zm68 -265l0 -245 186 0c97,0 154,45 154,119l0 2c0,77 -64,124 -155,124l-185 0zm796 305c151,0 252,-92 252,-267l0 -316c0,-19 -16,-34 -34,-34 -19,0 -34,15 -34,34l0 321c0,132 -71,199 -182,199 -115,0 -185,-73 -185,-203l0 -317c0,-19 -15,-34 -34,-34 -18,0 -34,15 -34,34l0 321c0,170 102,262 251,262zm413 -44c0,19 15,34 33,34l176 0c190,0 321,-132 321,-301l0 -2c0,-170 -131,-300 -321,-300l-176 0c-18,0 -33,16 -33,35l0 534zm68 -28l0 -478 141 0c153,0 250,105 250,239l0 2c0,133 -97,237 -250,237l-141 0zm864 32c0,19 16,35 34,35 19,0 34,-16 34,-35l0 -232 300 0c17,0 31,-14 31,-31 0,-18 -14,-32 -31,-32l-300 0 0 -215 339 0c17,0 31,-14 31,-32 0,-17 -14,-31 -31,-31l-373 0c-18,0 -34,16 -34,35l0 538zm565 0c0,19 16,35 34,35 19,0 34,-16 34,-35l0 -204 174 0 169 221c8,10 19,18 32,18 18,0 35,-16 35,-34 0,-9 -5,-17 -12,-25l-149 -193c94,-18 161,-76 161,-175l0 -2c0,-47 -17,-89 -47,-119 -38,-37 -97,-60 -171,-60l-226 0c-18,0 -34,16 -34,35l0 538zm68 -265l0 -245 187 0c97,0 154,45 154,119l0 2c0,77 -65,124 -155,124l-186 0zm514 269c0,17 14,31 31,31 15,0 27,-9 33,-24l63 -140 331 0 62 139c7,13 18,25 34,25 18,0 33,-15 33,-33 0,-5 -2,-11 -5,-17l-244 -535c-8,-19 -22,-30 -42,-30l-4 0c-22,0 -34,11 -43,30l-245 536c-3,6 -4,13 -4,18zm153 -195l139 -309 139 309 -278 0zm564 192c0,19 15,34 33,34 19,0 33,-15 33,-34l0 -450 192 283c8,11 18,17 30,17 12,0 20,-6 28,-17l193 -284 0 450c0,18 16,35 35,35 18,0 33,-16 33,-35l0 -542c0,-18 -15,-33 -33,-33l-8 0c-14,0 -25,6 -32,18l-215 324 -216 -324c-7,-11 -17,-18 -32,-18l-7 0c-19,0 -34,15 -34,33l0 543zm781 29l380 0c17,0 31,-13 31,-31 0,-17 -14,-31 -31,-31l-345 0 0 -211 302 0c17,0 31,-14 31,-31 0,-16 -14,-31 -31,-31l-302 0 0 -206 340 0c18,0 31,-13 31,-31 0,-17 -13,-31 -31,-31l-375 0c-18,0 -33,16 -33,35l0 534c0,19 15,34 33,34zm701 -21c6,18 18,29 35,29l6 0c17,0 29,-12 35,-29l156 -464 157 464c6,17 18,29 35,29l5 0c17,0 29,-12 35,-29l193 -536c2,-5 5,-11 5,-17 0,-17 -17,-33 -35,-33 -16,0 -27,11 -32,27l-168 480 -157 -480c-5,-16 -17,-27 -34,-27l-4 0c-18,0 -29,11 -34,27l-157 480 -167 -479c-5,-15 -18,-28 -35,-28 -19,0 -35,16 -35,34 0,6 1,11 3,16l193 536zm1045 32c184,0 309,-146 309,-312l0 -2c0,-166 -124,-310 -307,-310 -184,0 -309,145 -309,312l0 2c0,166 124,310 307,310zm2 -63c-138,0 -238,-112 -238,-249l0 -2c0,-137 98,-247 236,-247 138,0 238,112 238,249l0 2c0,136 -98,247 -236,247zm451 22c0,19 15,35 33,35 19,0 35,-16 35,-35l0 -204 173 0 170 221c7,10 18,18 31,18 18,0 35,-16 35,-34 0,-9 -4,-17 -11,-25l-150 -193c94,-18 161,-76 161,-175l0 -2c0,-47 -17,-89 -47,-119 -38,-37 -97,-60 -171,-60l-226 0c-18,0 -33,16 -33,35l0 538zm68 -265l0 -245 186 0c97,0 154,45 154,119l0 2c0,77 -65,124 -155,124l-185 0zm555 265c0,19 15,35 33,35 19,0 35,-16 35,-35l0 -131 130 -130 225 280c6,9 14,16 27,16 19,0 35,-17 35,-35 0,-10 -4,-17 -10,-25l-229 -283 214 -211c7,-7 11,-15 11,-25 0,-17 -15,-33 -33,-33 -11,0 -19,5 -26,12l-344 352 0 -330c0,-19 -16,-34 -35,-34 -18,0 -33,15 -33,34l0 543z"/>
   <path class="fil2" d="M14996 2991c-295,259 -992,652 -992,772 0,0 71,-5 137,13 66,18 40,93 110,110 71,18 89,-17 133,36 44,53 101,75 132,70 31,-4 18,-22 88,-9 71,14 27,45 146,27 119,-18 124,22 238,-53 115,-75 464,-371 464,-371 0,0 40,503 20,590 -20,86 -42,97 -44,136 -3,40 11,47 -11,69 -23,22 -40,32 -75,27 -36,-4 -17,-6 -48,-10 -31,-3 -56,8 -76,39 -20,31 -22,62 -14,52 7,-10 68,-46 68,-39 0,8 -13,24 16,39 28,15 58,20 103,8 45,-12 84,-18 96,-16 12,2 8,8 29,8 21,0 57,6 57,6 0,0 59,13 96,8 37,-5 29,-13 60,-6 31,7 46,3 51,1 4,-3 7,-3 14,5 8,9 17,16 17,16l2 -19c0,0 33,3 43,-13 11,-16 8,-39 11,-37 4,1 26,24 31,35 6,10 10,31 13,20 3,-12 2,-70 -29,-101 -32,-32 -64,-23 -84,-18 -19,6 -36,7 -42,3 -6,-4 -8,-9 -35,-10 -28,-2 -32,6 -49,-5 -16,-10 6,-70 -42,-116 -47,-47 -53,-59 -56,-78 -3,-18 -3,-390 12,-432 15,-42 53,-55 55,-119 2,-64 2,-93 5,-106 2,-13 24,-40 75,-69 50,-28 194,-88 183,-68 -11,20 -16,60 2,53 18,-7 79,-31 73,-13 -7,17 -28,42 -7,40 21,-3 150,-99 141,-83 -8,15 -21,49 0,38 21,-11 72,-35 72,-35 0,0 -19,28 22,15 41,-12 79,-34 122,-50 43,-17 96,-31 90,-21 -5,10 12,18 32,13 20,-6 35,-6 35,-6 0,0 -120,244 -125,302 -6,57 100,186 104,207 5,21 13,37 19,28 7,-9 6,-20 18,-4 12,17 19,1 19,1l12 -1c0,0 247,344 259,376 12,32 2,91 -46,106 -48,15 -80,14 -93,4 -13,-11 -26,-23 -36,-21 -10,2 -14,1 -14,1 0,0 -42,11 -68,27 -26,15 -42,128 -34,121 7,-7 22,-53 45,-70 23,-17 38,-21 40,-12 1,8 -9,31 2,48 10,18 35,45 63,39 27,-6 95,-28 131,-32 35,-4 51,-10 51,-10 0,0 -6,34 16,44 22,9 46,7 67,2 22,-4 18,-1 31,1 13,3 25,-30 25,-30 0,0 37,30 84,39 48,9 82,-12 99,-10 16,2 11,4 44,6 33,3 48,-2 66,-10 17,-7 20,-16 36,-8 17,7 6,0 19,7 13,8 39,21 64,9 25,-12 31,-56 31,-56 0,0 25,-5 56,15 32,20 46,56 50,42 5,-15 -11,-70 -55,-89 -45,-19 -64,-18 -80,-18 -15,0 -30,-1 -52,3 -22,4 -29,4 -47,6 -18,1 -32,1 -32,1 0,0 -24,-27 -60,-29 -35,-2 -63,25 -75,28 -12,2 -49,1 -79,-23 -29,-23 -24,-38 -38,-55 -14,-16 -395,-513 -396,-520 -1,-7 22,-182 46,-219 24,-36 22,-33 32,-72 10,-40 18,-60 20,-65 2,-6 73,-181 121,-243 49,-62 312,-309 417,-592 106,-282 40,-172 168,-375 128,-203 199,-340 194,-450 -4,-110 -119,-305 -62,-543 58,-238 111,-331 234,-450 124,-119 369,-174 433,-190 64,-15 121,-29 170,-26 48,2 232,15 325,7 94,-9 120,-19 120,-19l-7 -5 19 0c0,0 -103,-169 -264,-240 -161,-71 -644,-201 -669,-212 -24,-11 -103,-104 -386,-108 -282,-4 -686,241 -836,426 -150,185 -254,360 -323,415 -68,55 -275,165 -308,212 -33,46 -22,48 -60,86 -38,37 -91,84 -141,159 -51,75 -239,351 -276,410 -38,60 -77,97 -115,166 -33,59 -112,284 -147,504 -145,216 -311,469 -336,520 -35,70 -66,119 -33,106 12,-5 31,-9 53,-13z"/>
  </g>
 </g>
</svg>
